<svg version="1.1" id="Layer_1" xmlns="http://www.w3.org/2000/svg" xmlns:xlink="http://www.w3.org/1999/xlink" x="0px" y="0px"
	 width="100%" viewBox="0 0 1873 1086" enable-background="new 0 0 1873 1086" xml:space="preserve">
<path fill="#000000" opacity="1.000000" stroke="none" 
	d="
M1.000008,947.000000 
	C1.000000,631.721802 1.000000,316.443573 1.000000,1.000000 
	C451.699371,1.000000 902.398743,1.000000 1353.681152,1.380974 
	C1346.333496,5.519115 1338.021729,8.646436 1330.552490,13.166221 
	C1315.603516,22.212378 1305.699951,36.611248 1294.365845,49.404392 
	C1283.550537,61.611973 1273.208740,74.242035 1262.762451,86.772789 
	C1254.433594,96.763466 1245.788208,106.540718 1238.152832,117.044701 
	C1230.690186,127.310867 1221.736084,133.915710 1208.703857,134.003784 
	C1159.764771,134.334534 1110.824829,134.582474 1061.887451,135.085617 
	C1053.332642,135.173569 1044.712891,135.839722 1036.257080,137.122498 
	C1021.615112,139.343765 1008.397705,145.278564 997.853088,155.805191 
	C985.680847,167.956635 978.919250,183.144470 977.152100,200.102310 
	C974.813721,222.541916 981.753662,242.203949 997.809998,258.189972 
	C1007.909058,268.244843 1018.472168,277.842957 1029.017334,287.436859 
	C1035.230835,293.089905 1041.837402,298.309601 1048.228271,303.769714 
	C1054.245605,308.910675 1060.211914,314.111298 1066.392456,319.451385 
	C1065.018311,321.837189 1064.121826,324.006927 1062.703369,325.752258 
	C1055.948120,334.063446 1049.039917,342.249969 1042.207031,350.498230 
	C1032.964111,361.655884 1023.726746,372.818237 1014.512634,383.999634 
	C1007.291077,392.763062 1000.091736,401.544983 992.913025,410.343475 
	C985.314026,419.657166 977.744568,428.994965 970.173889,438.331696 
	C959.805542,451.118744 949.145874,463.684814 939.184692,476.781860 
	C931.644897,486.695190 922.356750,492.044464 909.817993,492.033539 
	C837.991760,491.970978 766.165588,492.020782 694.339417,491.960510 
	C689.896179,491.956757 685.416260,490.809540 681.018372,491.118622 
	C672.002441,491.752228 662.873840,492.280548 654.072388,494.164368 
	C633.639832,498.537567 615.837036,507.895935 602.193176,524.234253 
	C600.654053,526.077271 598.780334,527.640869 597.370056,529.030273 
	C591.223022,523.198242 585.968994,517.398987 579.911438,512.617798 
	C561.140686,497.802307 539.419189,491.172485 515.671875,491.061615 
	C507.730408,491.024567 499.783447,491.995483 491.843018,491.939819 
	C471.066437,491.794281 450.289307,491.454742 429.517700,490.966919 
	C411.822906,490.551361 394.687042,493.127838 378.365662,500.066650 
	C365.971619,505.335785 355.002228,512.732056 346.288300,523.180725 
	C342.211731,528.068848 338.143372,532.963928 333.901215,538.060242 
	C333.252106,537.528259 332.560242,537.087646 332.033295,536.499329 
	C331.270569,535.647827 330.723511,534.592651 329.918091,533.791626 
	C320.904755,524.827209 312.305420,515.379456 302.712341,507.081787 
	C290.100525,496.173004 274.220978,493.325562 258.196716,492.116333 
	C246.462143,491.230743 234.651154,491.017212 222.876785,491.070404 
	C198.934174,491.178558 174.986588,491.436523 151.055206,492.124756 
	C142.217804,492.378937 133.240921,493.226349 124.638298,495.174774 
	C99.354179,500.901550 79.753227,515.484375 65.282402,536.629089 
	C52.082432,555.916870 47.916462,578.204224 45.953403,601.052185 
	C45.165379,610.224060 43.884148,619.355957 42.719585,628.492310 
	C41.203472,640.386658 39.539009,652.262085 38.016109,664.155640 
	C36.846481,673.290100 35.845364,682.446045 34.682121,691.581360 
	C33.167393,703.477051 31.534271,715.357788 30.013025,727.252686 
	C28.844908,736.386353 27.815569,745.537781 26.644075,754.671021 
	C25.139336,766.402344 23.498335,778.116272 22.021437,789.851013 
	C20.870981,798.991882 19.944706,808.160950 18.805189,817.303284 
	C17.261045,829.692139 15.574932,842.063171 14.013319,854.449890 
	C12.881804,863.425171 11.909223,872.420593 10.765635,881.394226 
	C9.229008,893.452026 7.517901,905.487854 6.029389,917.551392 
	C4.880827,926.859863 3.990023,936.199951 2.862394,945.511230 
	C2.794184,946.074402 1.645792,946.506775 1.000008,947.000000 
z"/>
<path fill="#000000" opacity="1.000000" stroke="none" 
	d="
M1874.000000,566.000000 
	C1874.000000,739.605164 1874.000000,913.210388 1874.000000,1087.000000 
	C1649.974243,1087.000000 1425.948364,1087.000000 1201.365479,1086.583252 
	C1201.647705,1085.781494 1202.455322,1085.170898 1203.331299,1085.048218 
	C1208.865967,1084.272705 1214.483643,1083.944092 1219.949707,1082.848022 
	C1260.150635,1074.787109 1297.020264,1058.990356 1329.846069,1034.320435 
	C1333.803223,1031.346558 1335.523071,1031.644531 1338.505005,1034.905273 
	C1354.401123,1052.288330 1374.471191,1060.421265 1397.789917,1060.974121 
	C1404.838501,1061.141357 1411.894653,1060.997803 1418.947266,1060.997681 
	C1437.610107,1060.997314 1456.273926,1061.100708 1474.935547,1060.952637 
	C1483.760742,1060.882690 1492.728271,1061.229980 1501.376709,1059.823608 
	C1523.328491,1056.254028 1540.989258,1045.055542 1553.925537,1026.933960 
	C1559.351929,1019.332703 1563.766724,1011.017334 1568.985718,1003.258057 
	C1574.435791,995.154907 1590.197754,994.870789 1594.842407,1004.267883 
	C1601.431641,1017.598877 1609.328857,1030.121338 1620.643188,1040.219727 
	C1635.070801,1053.096558 1651.815796,1060.529541 1671.071289,1060.867920 
	C1699.556641,1061.368408 1728.057617,1061.057617 1756.551392,1060.952271 
	C1763.159668,1060.927856 1769.795532,1060.627930 1776.367065,1059.951782 
	C1792.971924,1058.243286 1807.204834,1051.087402 1819.439331,1039.973999 
	C1827.444214,1032.702637 1833.404297,1023.886230 1838.485962,1014.290344 
	C1845.381104,1001.269958 1849.145630,987.570251 1850.018799,972.935608 
	C1851.222900,952.752930 1845.343628,933.897705 1839.515991,915.000244 
	C1833.961304,896.988525 1828.491943,878.950073 1823.087402,860.892700 
	C1814.535034,832.318542 1806.110107,803.706177 1797.549561,775.134399 
	C1792.139893,757.078796 1786.526123,739.084351 1781.103149,721.032654 
	C1772.191650,691.367737 1763.404785,661.665344 1754.479858,632.004456 
	C1748.765259,613.012512 1742.440430,594.191589 1737.217285,575.067810 
	C1731.134521,552.796448 1720.876831,533.338013 1703.417969,517.846252 
	C1685.323608,501.790375 1663.917725,493.272034 1640.207886,492.254028 
	C1608.813843,490.906158 1577.343994,491.247650 1545.905518,491.061432 
	C1537.298950,491.010437 1528.689331,491.920563 1520.079102,491.956390 
	C1491.085571,492.077057 1462.091064,492.021362 1433.096924,491.989410 
	C1425.861694,491.981415 1423.793335,490.117310 1424.073853,482.877869 
	C1424.412354,474.146210 1425.450317,465.444061 1425.950073,456.715637 
	C1426.735107,443.003754 1427.574341,429.287201 1427.936157,415.560638 
	C1428.492310,394.460144 1428.807617,373.350403 1428.942017,352.242798 
	C1429.019531,340.069916 1433.977295,331.175140 1444.866577,325.565796 
	C1476.209351,309.420319 1507.647827,293.453644 1538.796387,276.940826 
	C1555.177612,268.256683 1572.379517,260.896240 1586.933594,249.020920 
	C1596.297485,241.380493 1603.696655,232.238861 1608.054321,220.891357 
	C1612.052856,210.479172 1613.779541,199.912338 1612.244629,188.538971 
	C1611.030640,179.543106 1608.787842,170.930328 1604.450439,163.324661 
	C1591.048828,139.825836 1569.458862,129.797333 1543.249023,129.106598 
	C1523.433350,128.584396 1503.589478,128.773544 1483.765137,129.090851 
	C1472.206055,129.275864 1460.667847,130.539642 1449.107056,130.932220 
	C1441.226562,131.199814 1435.970581,125.887932 1436.054321,118.088722 
	C1436.107422,113.145355 1436.272583,108.127701 1437.152954,103.282417 
	C1440.177856,86.631554 1439.922607,70.066803 1435.922119,53.680950 
	C1429.743164,28.372498 1414.783447,11.022381 1389.261230,3.569736 
	C1388.029053,3.209944 1387.080566,1.878823 1386.000000,1.000002 
	C1548.599731,1.000000 1711.199341,1.000000 1874.000000,1.000000 
	C1874.000000,180.359116 1874.000000,359.718323 1873.632812,539.687622 
	C1872.666748,539.182739 1871.890259,538.127075 1871.494995,536.944031 
	C1863.942749,514.341309 1839.873047,500.320892 1816.308105,504.895203 
	C1797.003052,508.642609 1784.052368,519.690491 1778.235107,538.103455 
	C1772.460938,556.380066 1775.866699,573.568787 1789.327881,587.611328 
	C1799.965210,598.708130 1813.446289,603.004395 1829.007568,602.134521 
	C1848.573975,601.040710 1866.593872,586.971313 1872.062988,567.917969 
	C1872.281738,567.156128 1873.335449,566.633911 1874.000000,566.000000 
z"/>
<path fill="#1C5FA9" opacity="1.000000" stroke="none" 
	d="
M1385.531372,1.000002 
	C1387.080566,1.878823 1388.029053,3.209944 1389.261230,3.569736 
	C1414.783447,11.022381 1429.743164,28.372498 1435.922119,53.680950 
	C1439.922607,70.066803 1440.177856,86.631554 1437.152954,103.282417 
	C1436.272583,108.127701 1436.107422,113.145355 1436.054321,118.088722 
	C1435.970581,125.887932 1441.226562,131.199814 1449.107056,130.932220 
	C1460.667847,130.539642 1472.206055,129.275864 1483.765137,129.090851 
	C1503.589478,128.773544 1523.433350,128.584396 1543.249023,129.106598 
	C1569.458862,129.797333 1591.048828,139.825836 1604.450439,163.324661 
	C1608.787842,170.930328 1611.030640,179.543106 1612.244629,188.538971 
	C1613.779541,199.912338 1612.052856,210.479172 1608.054321,220.891357 
	C1603.696655,232.238861 1596.297485,241.380493 1586.933594,249.020920 
	C1572.379517,260.896240 1555.177612,268.256683 1538.796387,276.940826 
	C1507.647827,293.453644 1476.209351,309.420319 1444.866577,325.565796 
	C1433.977295,331.175140 1429.019531,340.069916 1428.942017,352.242798 
	C1428.807617,373.350403 1428.492310,394.460144 1427.936157,415.560638 
	C1427.574341,429.287201 1426.735107,443.003754 1425.950073,456.715637 
	C1425.450317,465.444061 1424.412354,474.146210 1424.073853,482.877869 
	C1423.793335,490.117310 1425.861694,491.981415 1433.096924,491.989410 
	C1462.091064,492.021362 1491.085571,492.077057 1520.079102,491.956390 
	C1528.689331,491.920563 1537.298950,491.010437 1545.905518,491.061432 
	C1577.343994,491.247650 1608.813843,490.906158 1640.207886,492.254028 
	C1663.917725,493.272034 1685.323608,501.790375 1703.417969,517.846252 
	C1720.876831,533.338013 1731.134521,552.796448 1737.217285,575.067810 
	C1742.440430,594.191589 1748.765259,613.012512 1754.479858,632.004456 
	C1763.404785,661.665344 1772.191650,691.367737 1781.103149,721.032654 
	C1786.526123,739.084351 1792.139893,757.078796 1797.549561,775.134399 
	C1806.110107,803.706177 1814.535034,832.318542 1823.087402,860.892700 
	C1828.491943,878.950073 1833.961304,896.988525 1839.515991,915.000244 
	C1845.343628,933.897705 1851.222900,952.752930 1850.018799,972.935608 
	C1849.145630,987.570251 1845.381104,1001.269958 1838.485962,1014.290344 
	C1833.404297,1023.886230 1827.444214,1032.702637 1819.439331,1039.973999 
	C1807.204834,1051.087402 1792.971924,1058.243286 1776.367065,1059.951782 
	C1769.795532,1060.627930 1763.159668,1060.927856 1756.551392,1060.952271 
	C1728.057617,1061.057617 1699.556641,1061.368408 1671.071289,1060.867920 
	C1651.815796,1060.529541 1635.070801,1053.096558 1620.643188,1040.219727 
	C1609.328857,1030.121338 1601.431641,1017.598877 1594.842407,1004.267883 
	C1590.197754,994.870789 1574.435791,995.154907 1568.985718,1003.258057 
	C1563.766724,1011.017334 1559.351929,1019.332703 1553.925537,1026.933960 
	C1540.989258,1045.055542 1523.328491,1056.254028 1501.376709,1059.823608 
	C1492.728271,1061.229980 1483.760742,1060.882690 1474.935547,1060.952637 
	C1456.273926,1061.100708 1437.610107,1060.997314 1418.947266,1060.997681 
	C1411.894653,1060.997803 1404.838501,1061.141357 1397.789917,1060.974121 
	C1374.471191,1060.421265 1354.401123,1052.288330 1338.505005,1034.905273 
	C1335.523071,1031.644531 1333.803223,1031.346558 1329.846069,1034.320435 
	C1297.020264,1058.990356 1260.150635,1074.787109 1219.949707,1082.848022 
	C1214.483643,1083.944092 1208.865967,1084.272705 1203.331299,1085.048218 
	C1202.455322,1085.170898 1201.647705,1085.781494 1200.904297,1086.583252 
	C1179.312378,1087.000000 1157.624878,1087.000000 1135.564453,1086.583252 
	C1134.183960,1085.778198 1133.206177,1085.189331 1132.163940,1085.034912 
	C1126.639038,1084.216187 1121.039551,1083.799194 1115.572632,1082.707764 
	C1094.157349,1078.432495 1073.202515,1072.726562 1052.981323,1064.188843 
	C1030.736450,1054.796753 1009.834167,1043.228271 990.425293,1028.918335 
	C984.926453,1024.864136 979.535278,1020.663940 974.034363,1016.484863 
	C971.724365,1018.855652 969.896606,1020.558472 968.268250,1022.434326 
	C962.593689,1028.970825 957.543884,1036.166260 951.239807,1042.015259 
	C938.501770,1053.834106 922.660706,1059.710205 905.628784,1060.783203 
	C885.914001,1062.025391 866.097168,1061.988037 846.326294,1061.932495 
	C799.061096,1061.799805 751.796509,1061.363403 704.532471,1060.959839 
	C697.921265,1060.903320 691.316467,1060.289062 684.705139,1060.022583 
	C659.214722,1058.994385 633.727295,1057.851562 608.228210,1057.113647 
	C602.533752,1056.948853 596.802002,1058.306885 591.078308,1058.870605 
	C576.822693,1060.274780 562.585022,1062.036987 548.294312,1062.844482 
	C539.566162,1063.337769 530.753906,1062.307373 521.978027,1062.003418 
	C511.537720,1061.641724 501.095428,1061.339355 490.655579,1060.966431 
	C489.690918,1060.932007 488.740753,1060.559814 487.778809,1060.369995 
	C475.094879,1057.865845 464.430939,1050.907227 453.310822,1044.898071 
	C446.252319,1041.083740 439.003113,1036.754761 430.553558,1040.319580 
	C425.289276,1042.540649 420.419952,1045.678711 415.259705,1048.169800 
	C407.308502,1052.008179 399.383148,1055.947021 391.215942,1059.277100 
	C383.763367,1062.315796 375.853149,1061.283569 367.941895,1061.169189 
	C338.289368,1060.740234 308.625824,1061.138794 278.968781,1060.915039 
	C269.485382,1060.843384 260.374268,1058.504517 252.543777,1052.760986 
	C248.432098,1049.745361 244.797943,1046.055176 240.584274,1043.208130 
	C235.909241,1040.049438 230.669113,1038.953857 225.343369,1041.923462 
	C220.755524,1044.481567 215.870804,1046.703125 211.779068,1049.916016 
	C202.156219,1057.472046 191.253952,1060.876221 179.271072,1060.953003 
	C155.778336,1061.103760 132.283920,1060.996948 108.790207,1060.997559 
	C97.907219,1060.997925 86.968155,1061.704712 76.153831,1060.843628 
	C58.023537,1059.400146 42.190155,1051.782349 29.032799,1039.376099 
	C14.279927,1025.465454 6.163005,1007.890747 2.911988,987.966797 
	C2.791268,987.226868 1.660212,986.651855 0.999990,986.000000 
	C1.000000,973.312439 1.000000,960.624878 1.000008,947.468628 
	C1.645792,946.506775 2.794184,946.074402 2.862394,945.511230 
	C3.990023,936.199951 4.880827,926.859863 6.029389,917.551392 
	C7.517901,905.487854 9.229008,893.452026 10.765635,881.394226 
	C11.909223,872.420593 12.881804,863.425171 14.013319,854.449890 
	C15.574932,842.063171 17.261045,829.692139 18.805189,817.303284 
	C19.944706,808.160950 20.870981,798.991882 22.021437,789.851013 
	C23.498335,778.116272 25.139336,766.402344 26.644075,754.671021 
	C27.815569,745.537781 28.844908,736.386353 30.013025,727.252686 
	C31.534271,715.357788 33.167393,703.477051 34.682121,691.581360 
	C35.845364,682.446045 36.846481,673.290100 38.016109,664.155640 
	C39.539009,652.262085 41.203472,640.386658 42.719585,628.492310 
	C43.884148,619.355957 45.165379,610.224060 45.953403,601.052185 
	C47.916462,578.204224 52.082432,555.916870 65.282402,536.629089 
	C79.753227,515.484375 99.354179,500.901550 124.638298,495.174774 
	C133.240921,493.226349 142.217804,492.378937 151.055206,492.124756 
	C174.986588,491.436523 198.934174,491.178558 222.876785,491.070404 
	C234.651154,491.017212 246.462143,491.230743 258.196716,492.116333 
	C274.220978,493.325562 290.100525,496.173004 302.712341,507.081787 
	C312.305420,515.379456 320.904755,524.827209 329.918091,533.791626 
	C330.723511,534.592651 331.270569,535.647827 332.033295,536.499329 
	C332.560242,537.087646 333.252106,537.528259 333.901215,538.060242 
	C338.143372,532.963928 342.211731,528.068848 346.288300,523.180725 
	C355.002228,512.732056 365.971619,505.335785 378.365662,500.066650 
	C394.687042,493.127838 411.822906,490.551361 429.517700,490.966919 
	C450.289307,491.454742 471.066437,491.794281 491.843018,491.939819 
	C499.783447,491.995483 507.730408,491.024567 515.671875,491.061615 
	C539.419189,491.172485 561.140686,497.802307 579.911438,512.617798 
	C585.968994,517.398987 591.223022,523.198242 597.370056,529.030273 
	C598.780334,527.640869 600.654053,526.077271 602.193176,524.234253 
	C615.837036,507.895935 633.639832,498.537567 654.072388,494.164368 
	C662.873840,492.280548 672.002441,491.752228 681.018372,491.118622 
	C685.416260,490.809540 689.896179,491.956757 694.339417,491.960510 
	C766.165588,492.020782 837.991760,491.970978 909.817993,492.033539 
	C922.356750,492.044464 931.644897,486.695190 939.184692,476.781860 
	C949.145874,463.684814 959.805542,451.118744 970.173889,438.331696 
	C977.744568,428.994965 985.314026,419.657166 992.913025,410.343475 
	C1000.091736,401.544983 1007.291077,392.763062 1014.512634,383.999634 
	C1023.726746,372.818237 1032.964111,361.655884 1042.207031,350.498230 
	C1049.039917,342.249969 1055.948120,334.063446 1062.703369,325.752258 
	C1064.121826,324.006927 1065.018311,321.837189 1066.392456,319.451385 
	C1060.211914,314.111298 1054.245605,308.910675 1048.228271,303.769714 
	C1041.837402,298.309601 1035.230835,293.089905 1029.017334,287.436859 
	C1018.472168,277.842957 1007.909058,268.244843 997.809998,258.189972 
	C981.753662,242.203949 974.813721,222.541916 977.152100,200.102310 
	C978.919250,183.144470 985.680847,167.956635 997.853088,155.805191 
	C1008.397705,145.278564 1021.615112,139.343765 1036.257080,137.122498 
	C1044.712891,135.839722 1053.332642,135.173569 1061.887451,135.085617 
	C1110.824829,134.582474 1159.764771,134.334534 1208.703857,134.003784 
	C1221.736084,133.915710 1230.690186,127.310867 1238.152832,117.044701 
	C1245.788208,106.540718 1254.433594,96.763466 1262.762451,86.772789 
	C1273.208740,74.242035 1283.550537,61.611973 1294.365845,49.404392 
	C1305.699951,36.611248 1315.603516,22.212378 1330.552490,13.166221 
	C1338.021729,8.646436 1346.333496,5.519115 1354.132080,1.380974 
	C1364.354248,1.000000 1374.708496,1.000000 1385.531372,1.000002 
M1375.521851,1044.088379 
	C1387.858154,1048.238281 1400.603882,1048.868530 1413.486328,1048.777466 
	C1435.459595,1048.622192 1457.437256,1048.478760 1479.408081,1048.741943 
	C1502.677612,1049.020508 1523.411377,1042.931519 1538.727661,1024.582153 
	C1545.601807,1016.346802 1551.219727,1006.949402 1556.624512,997.625427 
	C1566.403809,980.754883 1597.267212,978.539490 1607.172363,999.371155 
	C1610.438721,1006.240723 1614.613159,1012.781799 1619.090088,1018.952454 
	C1630.781128,1035.066406 1646.491211,1045.228149 1666.404053,1047.535889 
	C1676.103638,1048.659912 1686.008057,1048.076660 1695.820679,1048.150635 
	C1717.146362,1048.311157 1738.472534,1048.422119 1759.798706,1048.508911 
	C1793.069946,1048.644165 1815.952393,1032.898071 1829.606079,1002.917725 
	C1839.835571,980.455872 1838.783691,957.660461 1831.875366,934.678589 
	C1795.880493,814.934631 1759.851562,695.200867 1723.844604,575.460510 
	C1710.755249,531.932190 1679.185059,506.150757 1635.744751,505.028046 
	C1599.443848,504.089905 1563.110596,504.222015 1526.791626,504.226257 
	C1495.640381,504.229889 1464.489624,504.813934 1433.337646,504.961487 
	C1418.260498,505.032898 1410.992920,497.509949 1411.021240,482.441223 
	C1411.024414,480.777130 1411.163452,479.113586 1411.227173,477.449341 
	C1412.818970,435.863129 1414.689453,394.284851 1415.871460,352.687012 
	C1416.397705,334.163239 1424.088745,321.191528 1440.716064,312.804047 
	C1473.380981,296.326569 1505.883057,279.519897 1538.280396,262.521240 
	C1551.075317,255.807907 1563.931030,248.978394 1575.821289,240.832901 
	C1590.188477,230.990707 1599.033081,217.015213 1599.793823,199.055313 
	C1601.117554,167.808990 1578.654175,143.391312 1546.051392,142.228180 
	C1521.960938,141.368729 1497.796021,142.493195 1473.666748,142.884277 
	C1465.020874,143.024429 1456.360718,144.180511 1447.745117,143.857162 
	C1433.010376,143.304138 1423.937622,134.206680 1423.255737,119.483482 
	C1422.965698,113.221962 1423.599121,106.816307 1424.638550,100.614555 
	C1427.210083,85.272682 1426.696167,70.138893 1422.900024,55.085789 
	C1413.779785,18.920422 1379.016479,9.204747 1356.841553,15.182692 
	C1341.269531,19.380602 1329.213989,28.932564 1319.056152,40.968750 
	C1294.026611,70.626877 1269.132446,100.400017 1244.320312,130.240509 
	C1235.702515,140.604813 1225.004272,146.328247 1211.468384,146.475647 
	C1197.142334,146.631683 1182.814941,146.684250 1168.488892,146.842392 
	C1130.011475,147.267151 1091.531982,147.582962 1053.058594,148.246506 
	C1039.950195,148.472580 1027.343384,151.221283 1015.873779,158.187759 
	C992.326477,172.490097 976.620789,214.975204 1004.321533,245.589813 
	C1016.227356,258.748108 1030.023926,270.224487 1043.233643,282.164001 
	C1051.754150,289.865204 1060.759766,297.030518 1069.564331,304.416504 
	C1080.558838,313.639374 1081.625854,322.892273 1072.978760,334.371582 
	C1072.277344,335.302673 1071.529053,336.199432 1070.781250,337.094360 
	C1056.788452,353.839722 1042.637817,370.456146 1028.829956,387.352570 
	C1001.740356,420.501221 974.800354,453.772461 947.887207,487.064697 
	C939.496948,497.443726 929.115723,503.943359 915.558472,504.448914 
	C908.582275,504.709045 901.588196,504.485870 894.602173,504.485779 
	C837.272156,504.485016 779.942139,504.485107 722.612122,504.485443 
	C706.959839,504.485535 691.297913,504.140137 675.657654,504.574341 
	C655.150879,505.143616 636.257324,510.862518 620.429443,524.513855 
	C615.778198,528.525513 611.777466,533.281433 607.282410,537.486511 
	C600.705688,543.638977 593.985046,543.678284 587.238098,537.818298 
	C585.859924,536.621277 584.555298,535.322937 583.330627,533.968323 
	C563.981995,512.567932 539.704346,503.247101 511.100586,504.058685 
	C493.624054,504.554504 476.134583,504.766998 458.650726,504.776245 
	C445.016327,504.783447 431.331329,503.407654 417.757721,504.189575 
	C390.631958,505.752136 367.204407,515.732788 350.594147,538.233276 
	C345.222595,545.509583 340.946014,553.594238 336.179260,561.291809 
	C326.867188,550.718506 317.369781,540.028015 307.976349,529.246887 
	C294.413879,513.680786 277.304382,505.345215 256.727203,505.137512 
	C220.092117,504.767822 183.425903,504.008942 146.820389,505.065643 
	C101.349197,506.378265 66.337021,540.144348 60.958061,585.366333 
	C56.750221,620.742493 52.135925,656.070618 47.646992,691.413025 
	C42.486927,732.039490 37.207634,772.650818 32.088215,813.282349 
	C27.134748,852.596680 22.263866,891.921753 17.468077,931.255615 
	C15.436373,947.919189 12.775914,964.474487 14.837903,981.469360 
	C19.927856,1023.420898 51.266617,1050.456421 93.390213,1049.199707 
	C116.843140,1048.500122 140.324051,1048.498901 163.790833,1048.585693 
	C180.204895,1048.646240 195.386597,1046.959595 209.306076,1036.071167 
	C226.436798,1022.670654 240.975739,1024.854370 257.348816,1039.327148 
	C261.378876,1042.889404 266.892914,1045.347656 272.143372,1046.796875 
	C277.655914,1048.318481 283.668884,1048.414062 289.467072,1048.447144 
	C316.284637,1048.600342 343.117126,1048.012451 369.916077,1048.735474 
	C382.527679,1049.075562 393.465210,1045.709351 403.987396,1039.521729 
	C408.576538,1036.822998 413.225372,1034.224854 417.870697,1031.623047 
	C429.608032,1025.049194 441.569366,1024.424561 453.680908,1030.504761 
	C458.880432,1033.114990 464.072083,1035.770508 469.086823,1038.713013 
	C480.682892,1045.517334 492.825439,1049.690552 506.573486,1048.627563 
	C512.679626,1048.155518 518.885803,1048.796875 525.036804,1049.118774 
	C542.675842,1050.041626 560.378174,1051.297363 577.834229,1047.812988 
	C598.946777,1043.598633 620.145142,1043.434204 641.491394,1044.696411 
	C667.082520,1046.209473 692.680725,1048.422241 718.290222,1048.640015 
	C777.267944,1049.142090 836.254639,1048.691040 895.237122,1048.470581 
	C912.488159,1048.406128 928.829224,1044.444336 941.994446,1032.739746 
	C948.625977,1026.843994 953.976562,1019.431091 959.504761,1012.388916 
	C967.264404,1002.504211 975.108154,1001.131287 985.317078,1008.434753 
	C986.535522,1009.306335 987.718201,1010.231323 988.881836,1011.175415 
	C1006.812683,1025.723999 1026.237793,1037.901733 1047.253540,1047.449707 
	C1104.777832,1073.584229 1164.461914,1081.533081 1226.501587,1067.950684 
	C1261.630859,1060.259766 1293.458862,1045.226318 1322.201782,1023.612610 
	C1332.849854,1015.605652 1339.123901,1016.172791 1348.111450,1025.956787 
	C1355.579224,1034.086304 1364.361206,1040.167969 1375.521851,1044.088379 
z"/>
<path fill="#000000" opacity="1.000000" stroke="none" 
	d="
M0.999990,986.468628 
	C1.660212,986.651855 2.791268,987.226868 2.911988,987.966797 
	C6.163005,1007.890747 14.279927,1025.465454 29.032799,1039.376099 
	C42.190155,1051.782349 58.023537,1059.400146 76.153831,1060.843628 
	C86.968155,1061.704712 97.907219,1060.997925 108.790207,1060.997559 
	C132.283920,1060.996948 155.778336,1061.103760 179.271072,1060.953003 
	C191.253952,1060.876221 202.156219,1057.472046 211.779068,1049.916016 
	C215.870804,1046.703125 220.755524,1044.481567 225.343369,1041.923462 
	C230.669113,1038.953857 235.909241,1040.049438 240.584274,1043.208130 
	C244.797943,1046.055176 248.432098,1049.745361 252.543777,1052.760986 
	C260.374268,1058.504517 269.485382,1060.843384 278.968781,1060.915039 
	C308.625824,1061.138794 338.289368,1060.740234 367.941895,1061.169189 
	C375.853149,1061.283569 383.763367,1062.315796 391.215942,1059.277100 
	C399.383148,1055.947021 407.308502,1052.008179 415.259705,1048.169800 
	C420.419952,1045.678711 425.289276,1042.540649 430.553558,1040.319580 
	C439.003113,1036.754761 446.252319,1041.083740 453.310822,1044.898071 
	C464.430939,1050.907227 475.094879,1057.865845 487.778809,1060.369995 
	C488.740753,1060.559814 489.690918,1060.932007 490.655579,1060.966431 
	C501.095428,1061.339355 511.537720,1061.641724 521.978027,1062.003418 
	C530.753906,1062.307373 539.566162,1063.337769 548.294312,1062.844482 
	C562.585022,1062.036987 576.822693,1060.274780 591.078308,1058.870605 
	C596.802002,1058.306885 602.533752,1056.948853 608.228210,1057.113647 
	C633.727295,1057.851562 659.214722,1058.994385 684.705139,1060.022583 
	C691.316467,1060.289062 697.921265,1060.903320 704.532471,1060.959839 
	C751.796509,1061.363403 799.061096,1061.799805 846.326294,1061.932495 
	C866.097168,1061.988037 885.914001,1062.025391 905.628784,1060.783203 
	C922.660706,1059.710205 938.501770,1053.834106 951.239807,1042.015259 
	C957.543884,1036.166260 962.593689,1028.970825 968.268250,1022.434326 
	C969.896606,1020.558472 971.724365,1018.855652 974.034363,1016.484863 
	C979.535278,1020.663940 984.926453,1024.864136 990.425293,1028.918335 
	C1009.834167,1043.228271 1030.736450,1054.796753 1052.981323,1064.188843 
	C1073.202515,1072.726562 1094.157349,1078.432495 1115.572632,1082.707764 
	C1121.039551,1083.799194 1126.639038,1084.216187 1132.163940,1085.034912 
	C1133.206177,1085.189331 1134.183960,1085.778198 1135.095703,1086.583252 
	C757.000000,1087.000000 379.000000,1087.000000 1.000000,1087.000000 
	C1.000000,1053.580322 1.000000,1020.258850 0.999990,986.468628 
z"/>
<path fill="#1A5FAA" opacity="1.000000" stroke="none" 
	d="
M1874.000000,565.531372 
	C1873.335449,566.633911 1872.281738,567.156128 1872.062988,567.917969 
	C1866.593872,586.971313 1848.573975,601.040710 1829.007568,602.134521 
	C1813.446289,603.004395 1799.965210,598.708130 1789.327881,587.611328 
	C1775.866699,573.568787 1772.460938,556.380066 1778.235107,538.103455 
	C1784.052368,519.690491 1797.003052,508.642609 1816.308105,504.895203 
	C1839.873047,500.320892 1863.942749,514.341309 1871.494995,536.944031 
	C1871.890259,538.127075 1872.666748,539.182739 1873.632812,540.148804 
	C1874.000000,548.354248 1874.000000,556.708496 1874.000000,565.531372 
M1818.621094,594.014282 
	C1819.284668,594.077454 1819.948730,594.134644 1820.611572,594.204651 
	C1838.875244,596.135132 1856.010010,585.895508 1862.918579,568.920593 
	C1869.914551,551.731445 1864.640869,532.485046 1849.788940,521.003235 
	C1835.351929,509.842133 1815.165771,509.542023 1800.579590,520.721008 
	C1787.250610,530.936340 1781.549194,544.671936 1784.846069,561.203918 
	C1788.432861,579.190979 1799.975708,589.883057 1818.621094,594.014282 
z"/>
<path fill="#FEFEFE" opacity="1.000000" stroke="none" 
	d="
M1375.137329,1043.999268 
	C1364.361206,1040.167969 1355.579224,1034.086304 1348.111450,1025.956787 
	C1339.123901,1016.172791 1332.849854,1015.605652 1322.201782,1023.612610 
	C1293.458862,1045.226318 1261.630859,1060.259766 1226.501587,1067.950684 
	C1164.461914,1081.533081 1104.777832,1073.584229 1047.253540,1047.449707 
	C1026.237793,1037.901733 1006.812683,1025.723999 988.881836,1011.175415 
	C987.718201,1010.231323 986.535522,1009.306335 985.317078,1008.434753 
	C975.108154,1001.131287 967.264404,1002.504211 959.504761,1012.388916 
	C953.976562,1019.431091 948.625977,1026.843994 941.994446,1032.739746 
	C928.829224,1044.444336 912.488159,1048.406128 895.237122,1048.470581 
	C836.254639,1048.691040 777.267944,1049.142090 718.290222,1048.640015 
	C692.680725,1048.422241 667.082520,1046.209473 641.491394,1044.696411 
	C620.145142,1043.434204 598.946777,1043.598633 577.834229,1047.812988 
	C560.378174,1051.297363 542.675842,1050.041626 525.036804,1049.118774 
	C518.885803,1048.796875 512.679626,1048.155518 506.573486,1048.627563 
	C492.825439,1049.690552 480.682892,1045.517334 469.086823,1038.713013 
	C464.072083,1035.770508 458.880432,1033.114990 453.680908,1030.504761 
	C441.569366,1024.424561 429.608032,1025.049194 417.870697,1031.623047 
	C413.225372,1034.224854 408.576538,1036.822998 403.987396,1039.521729 
	C393.465210,1045.709351 382.527679,1049.075562 369.916077,1048.735474 
	C343.117126,1048.012451 316.284637,1048.600342 289.467072,1048.447144 
	C283.668884,1048.414062 277.655914,1048.318481 272.143372,1046.796875 
	C266.892914,1045.347656 261.378876,1042.889404 257.348816,1039.327148 
	C240.975739,1024.854370 226.436798,1022.670654 209.306076,1036.071167 
	C195.386597,1046.959595 180.204895,1048.646240 163.790833,1048.585693 
	C140.324051,1048.498901 116.843140,1048.500122 93.390213,1049.199707 
	C51.266617,1050.456421 19.927856,1023.420898 14.837903,981.469360 
	C12.775914,964.474487 15.436373,947.919189 17.468077,931.255615 
	C22.263866,891.921753 27.134748,852.596680 32.088215,813.282349 
	C37.207634,772.650818 42.486927,732.039490 47.646992,691.413025 
	C52.135925,656.070618 56.750221,620.742493 60.958061,585.366333 
	C66.337021,540.144348 101.349197,506.378265 146.820389,505.065643 
	C183.425903,504.008942 220.092117,504.767822 256.727203,505.137512 
	C277.304382,505.345215 294.413879,513.680786 307.976349,529.246887 
	C317.369781,540.028015 326.867188,550.718506 336.179260,561.291809 
	C340.946014,553.594238 345.222595,545.509583 350.594147,538.233276 
	C367.204407,515.732788 390.631958,505.752136 417.757721,504.189575 
	C431.331329,503.407654 445.016327,504.783447 458.650726,504.776245 
	C476.134583,504.766998 493.624054,504.554504 511.100586,504.058685 
	C539.704346,503.247101 563.981995,512.567932 583.330627,533.968323 
	C584.555298,535.322937 585.859924,536.621277 587.238098,537.818298 
	C593.985046,543.678284 600.705688,543.638977 607.282410,537.486511 
	C611.777466,533.281433 615.778198,528.525513 620.429443,524.513855 
	C636.257324,510.862518 655.150879,505.143616 675.657654,504.574341 
	C691.297913,504.140137 706.959839,504.485535 722.612122,504.485443 
	C779.942139,504.485107 837.272156,504.485016 894.602173,504.485779 
	C901.588196,504.485870 908.582275,504.709045 915.558472,504.448914 
	C929.115723,503.943359 939.496948,497.443726 947.887207,487.064697 
	C974.800354,453.772461 1001.740356,420.501221 1028.829956,387.352570 
	C1042.637817,370.456146 1056.788452,353.839722 1070.781250,337.094360 
	C1071.529053,336.199432 1072.277344,335.302673 1072.978760,334.371582 
	C1081.625854,322.892273 1080.558838,313.639374 1069.564331,304.416504 
	C1060.759766,297.030518 1051.754150,289.865204 1043.233643,282.164001 
	C1030.023926,270.224487 1016.227356,258.748108 1004.321533,245.589813 
	C976.620789,214.975204 992.326477,172.490097 1015.873779,158.187759 
	C1027.343384,151.221283 1039.950195,148.472580 1053.058594,148.246506 
	C1091.531982,147.582962 1130.011475,147.267151 1168.488892,146.842392 
	C1182.814941,146.684250 1197.142334,146.631683 1211.468384,146.475647 
	C1225.004272,146.328247 1235.702515,140.604813 1244.320312,130.240509 
	C1269.132446,100.400017 1294.026611,70.626877 1319.056152,40.968750 
	C1329.213989,28.932564 1341.269531,19.380602 1356.841553,15.182692 
	C1379.016479,9.204747 1413.779785,18.920422 1422.900024,55.085789 
	C1426.696167,70.138893 1427.210083,85.272682 1424.638550,100.614555 
	C1423.599121,106.816307 1422.965698,113.221962 1423.255737,119.483482 
	C1423.937622,134.206680 1433.010376,143.304138 1447.745117,143.857162 
	C1456.360718,144.180511 1465.020874,143.024429 1473.666748,142.884277 
	C1497.796021,142.493195 1521.960938,141.368729 1546.051392,142.228180 
	C1578.654175,143.391312 1601.117554,167.808990 1599.793823,199.055313 
	C1599.033081,217.015213 1590.188477,230.990707 1575.821289,240.832901 
	C1563.931030,248.978394 1551.075317,255.807907 1538.280396,262.521240 
	C1505.883057,279.519897 1473.380981,296.326569 1440.716064,312.804047 
	C1424.088745,321.191528 1416.397705,334.163239 1415.871460,352.687012 
	C1414.689453,394.284851 1412.818970,435.863129 1411.227173,477.449341 
	C1411.163452,479.113586 1411.024414,480.777130 1411.021240,482.441223 
	C1410.992920,497.509949 1418.260498,505.032898 1433.337646,504.961487 
	C1464.489624,504.813934 1495.640381,504.229889 1526.791626,504.226257 
	C1563.110596,504.222015 1599.443848,504.089905 1635.744751,505.028046 
	C1679.185059,506.150757 1710.755249,531.932190 1723.844604,575.460510 
	C1759.851562,695.200867 1795.880493,814.934631 1831.875366,934.678589 
	C1838.783691,957.660461 1839.835571,980.455872 1829.606079,1002.917725 
	C1815.952393,1032.898071 1793.069946,1048.644165 1759.798706,1048.508911 
	C1738.472534,1048.422119 1717.146362,1048.311157 1695.820679,1048.150635 
	C1686.008057,1048.076660 1676.103638,1048.659912 1666.404053,1047.535889 
	C1646.491211,1045.228149 1630.781128,1035.066406 1619.090088,1018.952454 
	C1614.613159,1012.781799 1610.438721,1006.240723 1607.172363,999.371155 
	C1597.267212,978.539490 1566.403809,980.754883 1556.624512,997.625427 
	C1551.219727,1006.949402 1545.601807,1016.346802 1538.727661,1024.582153 
	C1523.411377,1042.931519 1502.677612,1049.020508 1479.408081,1048.741943 
	C1457.437256,1048.478760 1435.459595,1048.622192 1413.486328,1048.777466 
	C1400.603882,1048.868530 1387.858154,1048.238281 1375.137329,1043.999268 
M348.765594,700.264526 
	C344.175690,715.983093 339.585785,731.701599 334.637512,748.647522 
	C332.258240,741.694885 330.094940,736.109680 328.428253,730.380127 
	C319.512482,699.730042 310.835266,669.010376 301.844452,638.382507 
	C296.134888,618.932556 290.448975,599.456543 283.957977,580.260864 
	C278.646240,564.552673 266.768616,556.190125 250.272354,555.965332 
	C218.639389,555.534119 186.987991,555.297668 155.361145,555.886963 
	C120.897217,556.528992 113.845222,576.850342 110.988716,598.948853 
	C108.406357,618.926392 105.987999,638.925171 103.465927,658.910645 
	C98.985069,694.417908 94.479500,729.921936 89.986092,765.427612 
	C85.827026,798.291321 81.603699,831.147156 77.531136,864.021606 
	C73.356277,897.721741 69.050560,931.409546 65.341621,965.162048 
	C63.054203,985.978271 71.743881,995.981873 92.853859,996.704224 
	C113.491310,997.410400 134.167267,997.063843 154.826004,997.021545 
	C159.637833,997.011658 164.476028,996.579041 169.254379,995.967957 
	C185.162170,993.933594 195.941193,985.571289 200.553192,969.926514 
	C201.539200,966.581787 202.567001,963.198975 203.036301,959.760132 
	C207.762436,925.130249 212.372223,890.484497 217.024002,855.844482 
	C218.315079,846.230286 219.637024,836.620239 220.944809,827.008301 
	C221.556122,826.839905 222.167450,826.671509 222.778763,826.503113 
	C224.532608,830.086426 226.872894,833.502319 227.950897,837.278564 
	C240.731491,882.048889 253.204239,926.907104 266.021240,971.666809 
	C271.538300,990.933350 283.278259,998.229797 303.219238,997.586060 
	C323.981659,996.915833 344.800079,996.975830 365.563507,997.652954 
	C382.845795,998.216553 394.388916,991.736877 400.835022,975.774780 
	C402.015594,972.851379 402.935303,969.808228 403.781097,966.766357 
	C408.235413,950.745789 412.590179,934.697510 417.049713,918.678467 
	C423.693787,894.812012 430.346069,870.947571 437.122620,847.118591 
	C438.292084,843.006287 439.830200,837.496460 444.559723,837.681396 
	C450.224426,837.902893 449.301147,843.969177 449.860413,848.076721 
	C454.958130,885.518555 459.740295,923.005676 465.161469,960.400208 
	C467.484741,976.425781 474.493591,989.767273 491.666168,994.432739 
	C497.227570,995.943604 503.126892,996.805969 508.886475,996.885010 
	C529.709473,997.171143 550.540527,997.144714 571.364624,996.898254 
	C576.806091,996.833862 582.344177,996.002136 587.641235,994.714172 
	C595.908508,992.704041 600.736938,987.021362 601.840332,978.576782 
	C602.354126,974.644592 602.591125,970.574890 602.196960,966.643372 
	C600.669739,951.410095 598.938477,936.195251 597.101868,920.995422 
	C591.031372,870.756348 584.941284,820.519409 578.747437,770.295410 
	C571.535095,711.812805 564.161499,653.350037 556.947571,594.867615 
	C553.934692,570.442688 540.850647,557.322449 516.215637,555.907349 
	C499.605682,554.953247 482.916718,555.182678 466.263885,555.220337 
	C450.112732,555.256897 433.952057,555.456360 417.815369,556.089233 
	C405.221954,556.583069 394.168549,560.750732 388.028961,572.820007 
	C385.253510,578.276001 382.789734,583.997986 381.051056,589.856445 
	C370.218323,626.357056 359.631104,662.930603 348.765594,700.264526 
M943.891235,689.409485 
	C925.669800,734.450928 920.718994,780.871216 930.703857,828.466064 
	C942.108398,882.828125 969.723755,928.003906 1011.754211,963.941956 
	C1063.193481,1007.925171 1122.544312,1029.456055 1190.685425,1021.950562 
	C1244.145264,1016.062256 1289.376587,992.736084 1325.245117,952.723816 
	C1370.149414,902.631897 1387.816895,843.573181 1379.846436,776.853699 
	C1376.960571,752.695618 1364.778320,738.529907 1343.500244,734.412842 
	C1338.467529,733.439087 1333.245972,733.070618 1328.109985,733.060120 
	C1279.952393,732.961731 1231.794312,732.954285 1183.636719,733.050354 
	C1175.987183,733.065613 1168.314087,733.451050 1160.694946,734.141052 
	C1138.993896,736.106567 1129.444336,744.142273 1127.329712,764.139465 
	C1125.811890,778.492798 1125.533325,793.070557 1126.011841,807.504700 
	C1126.274780,815.438965 1127.979126,823.865906 1131.274536,831.041504 
	C1137.286743,844.132874 1149.820312,848.408142 1163.121338,848.903381 
	C1185.582764,849.739685 1208.081421,849.576965 1230.564453,849.829590 
	C1232.310303,849.849182 1234.056763,849.832153 1236.825317,849.832153 
	C1229.061279,859.715271 1221.160522,867.760925 1210.797485,872.675049 
	C1179.172729,887.671875 1148.272705,885.222107 1119.047485,866.640747 
	C1083.691284,844.161377 1066.865112,801.914795 1076.222778,758.986694 
	C1088.013184,704.898132 1131.999023,682.914917 1174.576416,684.707947 
	C1197.542358,685.675049 1217.456787,693.809326 1234.761353,709.196411 
	C1249.765869,722.538391 1265.644897,723.960815 1282.541260,713.447754 
	C1302.742432,700.878357 1322.691162,687.847961 1342.177246,674.200562 
	C1359.917236,661.775940 1362.895386,646.686279 1352.573486,627.639404 
	C1335.875244,596.826538 1311.501831,574.691467 1279.068604,560.853821 
	C1231.444458,540.535034 1182.183960,529.857117 1130.996826,540.531860 
	C1044.455200,558.579590 980.235657,606.279724 943.891235,689.409485 
M1463.935547,670.404724 
	C1439.245728,752.557739 1414.505371,834.695618 1389.912476,916.877686 
	C1385.482422,931.681458 1380.969727,946.518799 1377.729370,961.605713 
	C1373.520630,981.201782 1382.479736,993.161560 1402.260620,996.125977 
	C1405.702759,996.641907 1409.209351,996.943359 1412.688354,996.962036 
	C1435.849121,997.086609 1459.010742,997.196411 1482.171509,997.130066 
	C1497.069702,997.087402 1504.520020,990.990540 1507.894287,976.597473 
	C1508.273926,974.977966 1508.622559,973.348267 1509.080811,971.750549 
	C1514.714600,952.107422 1526.777222,939.140747 1547.508545,935.853821 
	C1570.135864,932.266296 1592.953247,932.200623 1615.683105,934.378418 
	C1628.817749,935.636902 1639.451782,942.092163 1645.349121,954.444702 
	C1648.053345,960.108948 1649.605347,966.311768 1651.996948,972.140320 
	C1653.995972,977.012451 1655.740845,982.235962 1658.853882,986.354858 
	C1666.476685,996.440430 1677.741821,997.687073 1689.429688,997.511353 
	C1705.911133,997.263489 1722.402222,997.493042 1738.877563,997.067993 
	C1747.660278,996.841370 1756.570557,996.438110 1765.153320,994.745178 
	C1778.959229,992.022095 1785.584961,983.568909 1784.992798,969.632385 
	C1784.657715,961.744873 1783.447388,953.679626 1781.197632,946.121094 
	C1752.790283,850.678833 1724.148682,755.306213 1695.500977,659.935669 
	C1688.185303,635.580933 1680.727661,611.267822 1673.170410,586.987000 
	C1666.807739,566.543701 1652.053833,556.608093 1631.335815,556.210205 
	C1598.882446,555.586853 1566.410767,555.759460 1533.947632,555.864380 
	C1509.959229,555.941956 1495.237427,568.545959 1488.132080,590.905701 
	C1487.729126,592.174194 1487.302368,593.435425 1486.914551,594.708496 
	C1479.308105,619.677551 1471.705811,644.647949 1463.935547,670.404724 
M894.191895,996.988831 
	C911.140564,995.515137 919.807129,986.332153 919.974182,969.388367 
	C920.135254,953.059082 920.223206,936.727051 920.104919,920.398010 
	C920.058044,913.919983 919.791016,907.386841 918.882202,900.984131 
	C917.153809,888.808105 910.971802,882.294434 898.957764,879.751160 
	C894.269287,878.758606 889.393066,878.276428 884.596558,878.234802 
	C861.268738,878.032104 837.939087,878.046204 814.610046,878.006836 
	C803.781738,877.988525 792.944641,878.298218 782.127258,877.958496 
	C770.785767,877.602295 765.110657,872.263367 763.425781,861.076355 
	C763.032166,858.463196 762.995178,855.755554 763.135803,853.109497 
	C763.877930,839.144958 770.401794,833.010132 784.409607,833.001648 
	C806.570374,832.988342 828.731201,833.014343 850.891968,832.992798 
	C867.492126,832.976624 874.136658,826.115845 874.015198,809.457031 
	C873.880432,790.973206 873.882385,772.488342 873.836121,754.003967 
	C873.825684,749.841736 874.134644,745.659119 873.826233,741.520935 
	C872.888672,728.942139 866.868408,722.101929 854.331909,720.889954 
	C845.098633,719.997253 835.722839,720.547729 826.410339,720.513611 
	C812.758972,720.463623 799.103271,720.248352 785.457336,720.513000 
	C774.047485,720.734314 766.652527,716.680176 764.555969,707.548767 
	C763.567505,703.243286 763.179077,698.602966 763.583130,694.212341 
	C764.722351,681.831238 769.600403,677.268433 782.027222,676.282837 
	C785.502869,676.007080 789.019714,676.264771 792.517578,676.251465 
	C819.001953,676.150635 845.500305,676.527100 871.965759,675.764465 
	C889.031433,675.272705 898.673279,666.690613 899.919861,649.729736 
	C901.429382,629.189453 901.304810,608.481323 900.926453,587.863464 
	C900.553833,567.557251 889.767578,556.762634 869.507446,555.961914 
	C850.542419,555.212402 831.540466,555.208069 812.554810,555.206116 
	C770.064026,555.201660 727.573120,555.392517 685.082458,555.541077 
	C681.925476,555.552124 678.759460,555.752991 675.614746,556.048340 
	C655.296143,557.956360 641.941406,569.148987 638.412964,588.435974 
	C636.898743,596.712891 636.901062,605.340881 636.898315,613.809509 
	C636.861877,726.465210 636.934326,839.120850 637.011047,951.776550 
	C637.029236,978.428284 655.216553,996.777405 681.779663,996.984802 
	C697.942871,997.110962 714.107117,997.161682 730.270874,997.152893 
	C784.598328,997.123413 838.925720,997.052124 894.191895,996.988831 
M1275.187012,172.695602 
	C1272.358398,176.191345 1269.506958,179.668808 1266.705688,183.186371 
	C1259.368896,192.399460 1249.693970,196.809250 1238.049438,196.983582 
	C1215.737915,197.317566 1193.424072,197.498398 1171.112793,197.847290 
	C1131.329346,198.469376 1091.547607,199.189865 1051.764038,199.807800 
	C1047.265259,199.877686 1044.048218,201.533951 1042.516602,205.902649 
	C1041.016602,210.181366 1042.952148,213.350479 1045.995972,216.035034 
	C1049.866089,219.448334 1053.867554,222.712296 1057.754883,226.106583 
	C1085.595459,250.416519 1113.428467,274.735199 1141.238159,299.080475 
	C1143.361938,300.939545 1145.459595,302.879730 1147.272827,305.032135 
	C1152.212036,310.895447 1152.777222,316.397583 1148.790771,322.911591 
	C1146.546387,326.578949 1143.797852,329.972931 1141.017456,333.271942 
	C1105.494629,375.422180 1069.914917,417.524475 1034.400024,459.681396 
	C1032.835327,461.538849 1031.754395,463.803802 1030.447998,465.878937 
	C1030.901123,466.439880 1031.354248,467.000824 1031.807373,467.561737 
	C1039.493164,464.688934 1047.385620,462.268860 1054.831543,458.870483 
	C1106.678833,435.206970 1158.455078,411.387115 1210.205078,387.511322 
	C1225.952271,380.246063 1234.939575,381.307404 1246.745605,391.861511 
	C1276.163330,418.160004 1305.580811,444.461578 1335.276245,470.444305 
	C1340.576172,475.081604 1347.017944,478.556641 1353.294312,481.886353 
	C1357.700928,484.224152 1359.590698,482.942993 1360.572998,477.946625 
	C1361.179321,474.862854 1361.362183,471.670135 1361.467285,468.517395 
	C1363.169434,417.444946 1364.969727,366.375092 1366.409424,315.295105 
	C1366.827637,300.457184 1373.072021,290.518555 1386.504150,283.713226 
	C1425.047729,264.185394 1463.242920,243.969971 1501.565674,224.006714 
	C1512.619141,218.248642 1523.735352,212.600616 1534.638428,206.568695 
	C1540.435059,203.361847 1545.021240,198.717682 1548.046753,192.505569 
	C1525.088135,192.505569 1502.767700,192.444977 1480.447876,192.526108 
	C1464.627808,192.583633 1448.803955,192.651611 1432.990234,193.050095 
	C1418.851196,193.406372 1404.728760,194.483032 1390.589600,194.762802 
	C1375.595825,195.059464 1369.921875,188.580643 1371.349854,173.783661 
	C1371.973267,167.323639 1372.706787,160.860611 1372.969604,154.381882 
	C1373.907959,131.267929 1374.752319,108.149155 1375.413574,85.025932 
	C1375.535767,80.756821 1375.119995,76.339645 1374.091431,72.204964 
	C1372.890015,67.374626 1369.522339,66.220840 1365.354614,69.006355 
	C1362.206055,71.110718 1359.142700,73.590569 1356.698242,76.462357 
	C1329.604492,108.293037 1302.639404,140.233017 1275.187012,172.695602 
z"/>
<path fill="#FBFCFE" opacity="1.000000" stroke="none" 
	d="
M1818.200439,593.966187 
	C1799.975708,589.883057 1788.432861,579.190979 1784.846069,561.203918 
	C1781.549194,544.671936 1787.250610,530.936340 1800.579590,520.721008 
	C1815.165771,509.542023 1835.351929,509.842133 1849.788940,521.003235 
	C1864.640869,532.485046 1869.914551,551.731445 1862.918579,568.920593 
	C1856.010010,585.895508 1838.875244,596.135132 1820.611572,594.204651 
	C1819.948730,594.134644 1819.284668,594.077454 1818.200439,593.966187 
M1807.833862,545.521423 
	C1807.833862,553.341064 1807.805298,561.160828 1807.846924,568.980286 
	C1807.865112,572.413147 1807.153198,576.808411 1812.274292,576.840515 
	C1817.704834,576.874634 1816.941040,572.303284 1816.988403,568.704407 
	C1817.039795,564.802795 1817.000244,560.899902 1817.000244,557.247498 
	C1823.567749,555.755737 1827.246948,558.561768 1830.022705,563.319214 
	C1832.282227,567.191406 1834.405640,571.217285 1837.228394,574.649475 
	C1838.347534,576.010437 1841.191895,575.952576 1843.250854,576.540649 
	C1843.751343,574.514038 1844.735718,572.455078 1844.603394,570.470642 
	C1844.491699,568.800354 1843.252808,567.096191 1842.212036,565.619080 
	C1839.789551,562.180481 1837.185425,558.869751 1834.627197,555.470459 
	C1842.557495,552.368408 1845.786987,547.777649 1844.689209,541.364441 
	C1843.524048,534.557861 1838.847046,531.053772 1830.552612,530.851196 
	C1827.559570,530.778076 1824.563354,530.837524 1821.568604,530.833618 
	C1806.674805,530.814148 1807.808838,529.648010 1807.833862,545.521423 
z"/>
<path fill="#1A5EA8" opacity="1.000000" stroke="none" 
	d="
M348.864014,699.872192 
	C359.631104,662.930603 370.218323,626.357056 381.051056,589.856445 
	C382.789734,583.997986 385.253510,578.276001 388.028961,572.820007 
	C394.168549,560.750732 405.221954,556.583069 417.815369,556.089233 
	C433.952057,555.456360 450.112732,555.256897 466.263885,555.220337 
	C482.916718,555.182678 499.605682,554.953247 516.215637,555.907349 
	C540.850647,557.322449 553.934692,570.442688 556.947571,594.867615 
	C564.161499,653.350037 571.535095,711.812805 578.747437,770.295410 
	C584.941284,820.519409 591.031372,870.756348 597.101868,920.995422 
	C598.938477,936.195251 600.669739,951.410095 602.196960,966.643372 
	C602.591125,970.574890 602.354126,974.644592 601.840332,978.576782 
	C600.736938,987.021362 595.908508,992.704041 587.641235,994.714172 
	C582.344177,996.002136 576.806091,996.833862 571.364624,996.898254 
	C550.540527,997.144714 529.709473,997.171143 508.886475,996.885010 
	C503.126892,996.805969 497.227570,995.943604 491.666168,994.432739 
	C474.493591,989.767273 467.484741,976.425781 465.161469,960.400208 
	C459.740295,923.005676 454.958130,885.518555 449.860413,848.076721 
	C449.301147,843.969177 450.224426,837.902893 444.559723,837.681396 
	C439.830200,837.496460 438.292084,843.006287 437.122620,847.118591 
	C430.346069,870.947571 423.693787,894.812012 417.049713,918.678467 
	C412.590179,934.697510 408.235413,950.745789 403.781097,966.766357 
	C402.935303,969.808228 402.015594,972.851379 400.835022,975.774780 
	C394.388916,991.736877 382.845795,998.216553 365.563507,997.652954 
	C344.800079,996.975830 323.981659,996.915833 303.219238,997.586060 
	C283.278259,998.229797 271.538300,990.933350 266.021240,971.666809 
	C253.204239,926.907104 240.731491,882.048889 227.950897,837.278564 
	C226.872894,833.502319 224.532608,830.086426 222.778763,826.503113 
	C222.167450,826.671509 221.556122,826.839905 220.944809,827.008301 
	C219.637024,836.620239 218.315079,846.230286 217.024002,855.844482 
	C212.372223,890.484497 207.762436,925.130249 203.036301,959.760132 
	C202.567001,963.198975 201.539200,966.581787 200.553192,969.926514 
	C195.941193,985.571289 185.162170,993.933594 169.254379,995.967957 
	C164.476028,996.579041 159.637833,997.011658 154.826004,997.021545 
	C134.167267,997.063843 113.491310,997.410400 92.853859,996.704224 
	C71.743881,995.981873 63.054203,985.978271 65.341621,965.162048 
	C69.050560,931.409546 73.356277,897.721741 77.531136,864.021606 
	C81.603699,831.147156 85.827026,798.291321 89.986092,765.427612 
	C94.479500,729.921936 98.985069,694.417908 103.465927,658.910645 
	C105.987999,638.925171 108.406357,618.926392 110.988716,598.948853 
	C113.845222,576.850342 120.897217,556.528992 155.361145,555.886963 
	C186.987991,555.297668 218.639389,555.534119 250.272354,555.965332 
	C266.768616,556.190125 278.646240,564.552673 283.957977,580.260864 
	C290.448975,599.456543 296.134888,618.932556 301.844452,638.382507 
	C310.835266,669.010376 319.512482,699.730042 328.428253,730.380127 
	C330.094940,736.109680 332.258240,741.694885 334.637512,748.647522 
	C339.585785,731.701599 344.175690,715.983093 348.864014,699.872192 
z"/>
<path fill="#1A5EA8" opacity="1.000000" stroke="none" 
	d="
M944.009888,689.046631 
	C980.235657,606.279724 1044.455200,558.579590 1130.996826,540.531860 
	C1182.183960,529.857117 1231.444458,540.535034 1279.068604,560.853821 
	C1311.501831,574.691467 1335.875244,596.826538 1352.573486,627.639404 
	C1362.895386,646.686279 1359.917236,661.775940 1342.177246,674.200562 
	C1322.691162,687.847961 1302.742432,700.878357 1282.541260,713.447754 
	C1265.644897,723.960815 1249.765869,722.538391 1234.761353,709.196411 
	C1217.456787,693.809326 1197.542358,685.675049 1174.576416,684.707947 
	C1131.999023,682.914917 1088.013184,704.898132 1076.222778,758.986694 
	C1066.865112,801.914795 1083.691284,844.161377 1119.047485,866.640747 
	C1148.272705,885.222107 1179.172729,887.671875 1210.797485,872.675049 
	C1221.160522,867.760925 1229.061279,859.715271 1236.825317,849.832153 
	C1234.056763,849.832153 1232.310303,849.849182 1230.564453,849.829590 
	C1208.081421,849.576965 1185.582764,849.739685 1163.121338,848.903381 
	C1149.820312,848.408142 1137.286743,844.132874 1131.274536,831.041504 
	C1127.979126,823.865906 1126.274780,815.438965 1126.011841,807.504700 
	C1125.533325,793.070557 1125.811890,778.492798 1127.329712,764.139465 
	C1129.444336,744.142273 1138.993896,736.106567 1160.694946,734.141052 
	C1168.314087,733.451050 1175.987183,733.065613 1183.636719,733.050354 
	C1231.794312,732.954285 1279.952393,732.961731 1328.109985,733.060120 
	C1333.245972,733.070618 1338.467529,733.439087 1343.500244,734.412842 
	C1364.778320,738.529907 1376.960571,752.695618 1379.846436,776.853699 
	C1387.816895,843.573181 1370.149414,902.631897 1325.245117,952.723816 
	C1289.376587,992.736084 1244.145264,1016.062256 1190.685425,1021.950562 
	C1122.544312,1029.456055 1063.193481,1007.925171 1011.754211,963.941956 
	C969.723755,928.003906 942.108398,882.828125 930.703857,828.466064 
	C920.718994,780.871216 925.669800,734.450928 944.009888,689.046631 
z"/>
<path fill="#1A5EA8" opacity="1.000000" stroke="none" 
	d="
M1464.019043,670.011353 
	C1471.705811,644.647949 1479.308105,619.677551 1486.914551,594.708496 
	C1487.302368,593.435425 1487.729126,592.174194 1488.132080,590.905701 
	C1495.237427,568.545959 1509.959229,555.941956 1533.947632,555.864380 
	C1566.410767,555.759460 1598.882446,555.586853 1631.335815,556.210205 
	C1652.053833,556.608093 1666.807739,566.543701 1673.170410,586.987000 
	C1680.727661,611.267822 1688.185303,635.580933 1695.500977,659.935669 
	C1724.148682,755.306213 1752.790283,850.678833 1781.197632,946.121094 
	C1783.447388,953.679626 1784.657715,961.744873 1784.992798,969.632385 
	C1785.584961,983.568909 1778.959229,992.022095 1765.153320,994.745178 
	C1756.570557,996.438110 1747.660278,996.841370 1738.877563,997.067993 
	C1722.402222,997.493042 1705.911133,997.263489 1689.429688,997.511353 
	C1677.741821,997.687073 1666.476685,996.440430 1658.853882,986.354858 
	C1655.740845,982.235962 1653.995972,977.012451 1651.996948,972.140320 
	C1649.605347,966.311768 1648.053345,960.108948 1645.349121,954.444702 
	C1639.451782,942.092163 1628.817749,935.636902 1615.683105,934.378418 
	C1592.953247,932.200623 1570.135864,932.266296 1547.508545,935.853821 
	C1526.777222,939.140747 1514.714600,952.107422 1509.080811,971.750549 
	C1508.622559,973.348267 1508.273926,974.977966 1507.894287,976.597473 
	C1504.520020,990.990540 1497.069702,997.087402 1482.171509,997.130066 
	C1459.010742,997.196411 1435.849121,997.086609 1412.688354,996.962036 
	C1409.209351,996.943359 1405.702759,996.641907 1402.260620,996.125977 
	C1382.479736,993.161560 1373.520630,981.201782 1377.729370,961.605713 
	C1380.969727,946.518799 1385.482422,931.681458 1389.912476,916.877686 
	C1414.505371,834.695618 1439.245728,752.557739 1464.019043,670.011353 
M1594.053589,748.324463 
	C1592.743896,744.039185 1591.379517,739.769714 1590.140015,735.464294 
	C1588.909912,731.191895 1587.147949,727.815369 1581.823853,727.773010 
	C1576.488281,727.730591 1574.163086,730.697021 1572.717773,735.283813 
	C1567.127075,753.023804 1561.315063,770.694580 1555.797974,788.457031 
	C1552.795532,798.123657 1549.898315,807.846069 1547.548584,817.685364 
	C1545.481812,826.339722 1548.347046,830.082642 1557.104248,831.640015 
	C1558.735107,831.930115 1560.413818,832.067932 1562.071045,832.072998 
	C1574.376099,832.110779 1586.689819,832.389709 1598.984009,832.025818 
	C1614.309326,831.572083 1618.379272,826.414978 1614.084839,811.790771 
	C1607.909912,790.763428 1600.911133,769.977905 1594.053589,748.324463 
z"/>
<path fill="#1A5EA8" opacity="1.000000" stroke="none" 
	d="
M893.722534,996.992798 
	C838.925720,997.052124 784.598328,997.123413 730.270874,997.152893 
	C714.107117,997.161682 697.942871,997.110962 681.779663,996.984802 
	C655.216553,996.777405 637.029236,978.428284 637.011047,951.776550 
	C636.934326,839.120850 636.861877,726.465210 636.898315,613.809509 
	C636.901062,605.340881 636.898743,596.712891 638.412964,588.435974 
	C641.941406,569.148987 655.296143,557.956360 675.614746,556.048340 
	C678.759460,555.752991 681.925476,555.552124 685.082458,555.541077 
	C727.573120,555.392517 770.064026,555.201660 812.554810,555.206116 
	C831.540466,555.208069 850.542419,555.212402 869.507446,555.961914 
	C889.767578,556.762634 900.553833,567.557251 900.926453,587.863464 
	C901.304810,608.481323 901.429382,629.189453 899.919861,649.729736 
	C898.673279,666.690613 889.031433,675.272705 871.965759,675.764465 
	C845.500305,676.527100 819.001953,676.150635 792.517578,676.251465 
	C789.019714,676.264771 785.502869,676.007080 782.027222,676.282837 
	C769.600403,677.268433 764.722351,681.831238 763.583130,694.212341 
	C763.179077,698.602966 763.567505,703.243286 764.555969,707.548767 
	C766.652527,716.680176 774.047485,720.734314 785.457336,720.513000 
	C799.103271,720.248352 812.758972,720.463623 826.410339,720.513611 
	C835.722839,720.547729 845.098633,719.997253 854.331909,720.889954 
	C866.868408,722.101929 872.888672,728.942139 873.826233,741.520935 
	C874.134644,745.659119 873.825684,749.841736 873.836121,754.003967 
	C873.882385,772.488342 873.880432,790.973206 874.015198,809.457031 
	C874.136658,826.115845 867.492126,832.976624 850.891968,832.992798 
	C828.731201,833.014343 806.570374,832.988342 784.409607,833.001648 
	C770.401794,833.010132 763.877930,839.144958 763.135803,853.109497 
	C762.995178,855.755554 763.032166,858.463196 763.425781,861.076355 
	C765.110657,872.263367 770.785767,877.602295 782.127258,877.958496 
	C792.944641,878.298218 803.781738,877.988525 814.610046,878.006836 
	C837.939087,878.046204 861.268738,878.032104 884.596558,878.234802 
	C889.393066,878.276428 894.269287,878.758606 898.957764,879.751160 
	C910.971802,882.294434 917.153809,888.808105 918.882202,900.984131 
	C919.791016,907.386841 920.058044,913.919983 920.104919,920.398010 
	C920.223206,936.727051 920.135254,953.059082 919.974182,969.388367 
	C919.807129,986.332153 911.140564,995.515137 893.722534,996.992798 
z"/>
<path fill="#E30713" opacity="1.000000" stroke="none" 
	d="
M1275.413330,172.419510 
	C1302.639404,140.233017 1329.604492,108.293037 1356.698242,76.462357 
	C1359.142700,73.590569 1362.206055,71.110718 1365.354614,69.006355 
	C1369.522339,66.220840 1372.890015,67.374626 1374.091431,72.204964 
	C1375.119995,76.339645 1375.535767,80.756821 1375.413574,85.025932 
	C1374.752319,108.149155 1373.907959,131.267929 1372.969604,154.381882 
	C1372.706787,160.860611 1371.973267,167.323639 1371.349854,173.783661 
	C1369.921875,188.580643 1375.595825,195.059464 1390.589600,194.762802 
	C1404.728760,194.483032 1418.851196,193.406372 1432.990234,193.050095 
	C1448.803955,192.651611 1464.627808,192.583633 1480.447876,192.526108 
	C1502.767700,192.444977 1525.088135,192.505569 1548.046753,192.505569 
	C1545.021240,198.717682 1540.435059,203.361847 1534.638428,206.568695 
	C1523.735352,212.600616 1512.619141,218.248642 1501.565674,224.006714 
	C1463.242920,243.969971 1425.047729,264.185394 1386.504150,283.713226 
	C1373.072021,290.518555 1366.827637,300.457184 1366.409424,315.295105 
	C1364.969727,366.375092 1363.169434,417.444946 1361.467285,468.517395 
	C1361.362183,471.670135 1361.179321,474.862854 1360.572998,477.946625 
	C1359.590698,482.942993 1357.700928,484.224152 1353.294312,481.886353 
	C1347.017944,478.556641 1340.576172,475.081604 1335.276245,470.444305 
	C1305.580811,444.461578 1276.163330,418.160004 1246.745605,391.861511 
	C1234.939575,381.307404 1225.952271,380.246063 1210.205078,387.511322 
	C1158.455078,411.387115 1106.678833,435.206970 1054.831543,458.870483 
	C1047.385620,462.268860 1039.493164,464.688934 1031.807373,467.561737 
	C1031.354248,467.000824 1030.901123,466.439880 1030.447998,465.878937 
	C1031.754395,463.803802 1032.835327,461.538849 1034.400024,459.681396 
	C1069.914917,417.524475 1105.494629,375.422180 1141.017456,333.271942 
	C1143.797852,329.972931 1146.546387,326.578949 1148.790771,322.911591 
	C1152.777222,316.397583 1152.212036,310.895447 1147.272827,305.032135 
	C1145.459595,302.879730 1143.361938,300.939545 1141.238159,299.080475 
	C1113.428467,274.735199 1085.595459,250.416519 1057.754883,226.106583 
	C1053.867554,222.712296 1049.866089,219.448334 1045.995972,216.035034 
	C1042.952148,213.350479 1041.016602,210.181366 1042.516602,205.902649 
	C1044.048218,201.533951 1047.265259,199.877686 1051.764038,199.807800 
	C1091.547607,199.189865 1131.329346,198.469376 1171.112793,197.847290 
	C1193.424072,197.498398 1215.737915,197.317566 1238.049438,196.983582 
	C1249.693970,196.809250 1259.368896,192.399460 1266.705688,183.186371 
	C1269.506958,179.668808 1272.358398,176.191345 1275.413330,172.419510 
z"/>
<path fill="#1C60AB" opacity="1.000000" stroke="none" 
	d="
M1807.833862,545.027039 
	C1807.808838,529.648010 1806.674805,530.814148 1821.568604,530.833618 
	C1824.563354,530.837524 1827.559570,530.778076 1830.552612,530.851196 
	C1838.847046,531.053772 1843.524048,534.557861 1844.689209,541.364441 
	C1845.786987,547.777649 1842.557495,552.368408 1834.627197,555.470459 
	C1837.185425,558.869751 1839.789551,562.180481 1842.212036,565.619080 
	C1843.252808,567.096191 1844.491699,568.800354 1844.603394,570.470642 
	C1844.735718,572.455078 1843.751343,574.514038 1843.250732,576.540649 
	C1841.191895,575.952576 1838.347534,576.010437 1837.228394,574.649475 
	C1834.405640,571.217285 1832.282227,567.191406 1830.022705,563.319214 
	C1827.246948,558.561768 1823.567749,555.755737 1817.000244,557.247498 
	C1817.000244,560.899902 1817.039795,564.802795 1816.988403,568.704407 
	C1816.941040,572.303284 1817.704834,576.874634 1812.274292,576.840515 
	C1807.153198,576.808411 1807.865112,572.413147 1807.846924,568.980286 
	C1807.805298,561.160828 1807.833862,553.341064 1807.833862,545.027039 
M1829.496582,537.785278 
	C1825.420898,537.785278 1821.345215,537.785278 1817.263916,537.785278 
	C1817.263916,541.992798 1817.263916,545.894348 1817.263916,550.180176 
	C1820.302612,550.180176 1823.079834,550.198975 1825.856445,550.171143 
	C1827.011353,550.159546 1828.179810,550.142517 1829.316528,549.964722 
	C1832.486572,549.468689 1835.134399,548.161255 1835.394409,544.544739 
	C1835.651123,540.971802 1834.144165,538.469177 1829.496582,537.785278 
z"/>
<path fill="#FDFDFE" opacity="1.000000" stroke="none" 
	d="
M1594.158691,748.706787 
	C1600.911133,769.977905 1607.909912,790.763428 1614.084839,811.790771 
	C1618.379272,826.414978 1614.309326,831.572083 1598.984009,832.025818 
	C1586.689819,832.389709 1574.376099,832.110779 1562.071045,832.072998 
	C1560.413818,832.067932 1558.735107,831.930115 1557.104248,831.640015 
	C1548.347046,830.082642 1545.481812,826.339722 1547.548584,817.685364 
	C1549.898315,807.846069 1552.795532,798.123657 1555.797974,788.457031 
	C1561.315063,770.694580 1567.127075,753.023804 1572.717773,735.283813 
	C1574.163086,730.697021 1576.488281,727.730591 1581.823853,727.773010 
	C1587.147949,727.815369 1588.909912,731.191895 1590.140015,735.464294 
	C1591.379517,739.769714 1592.743896,744.039185 1594.158691,748.706787 
z"/>
<path fill="#F6F9FC" opacity="1.000000" stroke="none" 
	d="
M1829.906372,537.827393 
	C1834.144165,538.469177 1835.651123,540.971802 1835.394409,544.544739 
	C1835.134399,548.161255 1832.486572,549.468689 1829.316528,549.964722 
	C1828.179810,550.142517 1827.011353,550.159546 1825.856445,550.171143 
	C1823.079834,550.198975 1820.302612,550.180176 1817.263916,550.180176 
	C1817.263916,545.894348 1817.263916,541.992798 1817.263916,537.785278 
	C1821.345215,537.785278 1825.420898,537.785278 1829.906372,537.827393 
z"/>
</svg>